<svg version="1.1" id="Layer_1" xmlns="http://www.w3.org/2000/svg" xmlns:xlink="http://www.w3.org/1999/xlink" x="0px" y="0px"
	 width="100%" viewBox="0 0 240 208" enable-background="new 0 0 240 208" xml:space="preserve">
<path fill="#000000" opacity="1.000000" stroke="none" 
	d="
M165.545105,125.441193 
	C173.654877,133.375076 181.502655,141.069946 189.319641,148.795990 
	C190.614304,150.075577 192.315750,151.585175 190.361755,153.391830 
	C188.516632,155.097809 186.944168,153.465088 185.653564,152.204803 
	C175.881119,142.661850 166.151215,133.067322 155.279587,124.750984 
	C149.991501,120.705818 144.532745,116.883461 139.143723,112.970642 
	C132.586761,108.209831 132.322815,105.063599 138.420776,99.554955 
	C145.061249,93.556236 150.134872,86.420250 154.457031,78.668808 
	C155.610092,76.600906 156.255585,74.460182 156.249619,72.152054 
	C147.902374,70.151329 144.789276,71.856918 141.989777,79.000435 
	C138.825623,87.074463 134.788483,94.727692 129.774857,101.840897 
	C128.349365,103.863358 126.745277,105.741600 126.066856,108.276085 
	C125.433258,110.643089 123.176903,111.352631 121.033638,111.810616 
	C119.958946,112.040268 119.087395,111.347015 118.703720,110.328720 
	C117.889610,108.168015 119.517342,106.901932 120.680450,105.570366 
	C127.082794,98.240738 132.252151,90.137703 136.146454,81.221748 
	C136.782501,79.765526 137.918823,78.491768 136.459000,76.676308 
	C135.091278,74.975418 133.728134,74.675690 131.705490,75.078743 
	C127.933022,75.830505 124.236610,76.712769 120.938660,78.775917 
	C119.637711,79.589775 118.316360,80.680611 117.057243,78.948235 
	C116.037872,77.545708 116.604218,76.106964 117.535324,74.801254 
	C118.569496,73.351006 120.138893,72.703445 121.711449,72.208015 
	C132.709549,68.743156 144.026993,66.849800 155.483276,65.931557 
	C160.453690,65.533165 162.340073,67.848106 162.309891,72.897530 
	C162.285843,76.920723 160.403214,80.255646 158.468140,83.555992 
	C153.649155,91.774918 147.795044,99.188919 140.184357,105.929260 
	C148.452515,112.991135 157.621414,118.150482 165.545105,125.441193 
z"/>
<path fill="#000000" opacity="1.000000" stroke="none" 
	d="
M82.072769,70.203903 
	C87.271492,68.492981 91.562836,66.092606 95.037598,62.295998 
	C96.206230,61.019119 97.829918,60.056068 99.371132,61.624298 
	C100.919960,63.200256 99.790352,64.599464 98.611206,65.926559 
	C85.906166,80.225845 77.201767,97.093254 68.223633,113.749413 
	C63.891357,121.786613 60.213940,130.178421 56.294575,138.435577 
	C55.101593,140.948898 53.648384,143.294983 53.825016,146.392487 
	C53.960827,148.774048 51.924652,150.532776 50.373764,152.261581 
	C49.347645,153.405396 48.103832,154.481842 46.482944,153.665756 
	C44.632515,152.734100 44.651497,151.020691 45.347992,149.341599 
	C48.463837,141.829926 51.556473,134.307556 54.777435,126.840790 
	C62.163891,109.717659 70.745705,93.246292 81.660759,78.062668 
	C82.120476,77.423172 82.401062,76.654907 82.920715,75.643852 
	C78.114799,76.205971 73.720490,76.828148 69.304688,77.183205 
	C67.537193,77.325325 65.119698,77.261017 64.903397,74.964935 
	C64.640205,72.171104 67.324852,72.894272 68.946579,72.587715 
	C73.187309,71.786072 77.447266,71.086090 82.072769,70.203903 
z"/>
<path fill="#000000" opacity="1.000000" stroke="none" 
	d="
M109.139725,105.890610 
	C111.511711,105.786606 113.485809,106.143608 113.714195,108.429039 
	C113.934044,110.629059 112.001144,111.979042 110.247620,112.037552 
	C102.073822,112.310242 95.787270,117.759071 88.259277,119.717972 
	C87.295731,119.968697 86.381210,120.402252 85.425720,120.690659 
	C82.956230,121.436035 80.306259,122.013535 78.533783,119.627831 
	C76.890686,117.416229 77.438713,114.823502 78.745483,112.552368 
	C81.400208,107.938553 84.059669,103.320663 86.918221,98.832489 
	C91.657051,91.392136 96.649864,84.116043 100.762901,76.285561 
	C101.592026,74.707047 102.274292,71.797310 104.924339,73.280029 
	C107.223770,74.566582 105.285759,76.488663 104.570564,78.036385 
	C99.799042,88.362267 92.953659,97.453896 87.195183,107.192886 
	C85.688606,109.740868 83.781532,112.115532 83.120926,115.818344 
	C92.391502,113.727943 100.008408,108.305862 109.139725,105.890610 
z"/>
</svg>